<svg width="100%" height="100%" viewBox="0 0 48 48" fill="none" xmlns="http://www.w3.org/2000/svg">
<rect width="48" height="48" fill="#CC0000"/>
<path d="M34.2689 18.7833C33.7107 18.6409 33.014 18.9817 32.8586 19.6043L31.1086 26.4873L29.5035 20.1865C29.4898 20.1138 29.431 19.912 29.4229 19.9006C29.2946 19.563 29.0643 19.2719 28.7628 19.0663C28.4613 18.8607 28.103 18.7503 27.7358 18.75C26.9614 18.75 26.2965 19.2237 26.0475 19.8995C26.0454 19.9047 26.0157 19.9926 26.0039 20.0322C26.0023 20.0387 25.9992 20.0454 25.9977 20.0518L24.3664 26.5031C24.3664 26.5031 22.6348 19.7067 22.6329 19.6981L22.6273 19.6755C22.6273 19.6741 22.6251 19.6734 22.6246 19.6721C22.5601 19.4122 22.4094 19.1807 22.1962 19.014C21.9831 18.8473 21.7195 18.7549 21.4469 18.7511C21.4443 18.7511 21.4421 18.75 21.4394 18.75H21.4356C21.4339 18.75 21.4323 18.75 21.4304 18.75C21.4285 18.75 21.4269 18.75 21.4252 18.75H19.5C19.8503 18.9837 20.0452 19.3244 20.1222 19.7182L20.4905 21.1605C20.4905 21.1605 22.5981 29.4258 22.6 29.4321C22.7099 29.8115 22.9428 30.1454 23.2635 30.3832C23.5842 30.621 23.9752 30.7498 24.3771 30.75C25.1897 30.75 25.8609 30.224 26.1084 29.5081C26.0897 29.4983 26.1084 29.51 26.1084 29.5081L27.7345 23.1124C27.7345 23.1124 29.3222 29.4344 29.3433 29.4398C29.5678 30.1934 30.266 30.7497 31.1067 30.7497C31.5358 30.7494 31.9515 30.6027 32.2824 30.3347C32.6134 30.0666 32.839 29.694 32.9206 29.2806L35.2206 20.2003C35.3761 19.5777 34.8942 18.9424 34.2689 18.7833Z" fill="white"/>
<path d="M12 19.9559C12 20.6822 12.6407 21.1612 13.2165 21.1612H15.8715L15.8777 29.533C15.8759 29.6922 15.9069 29.8502 15.9688 29.9977C16.0307 30.1453 16.1223 30.2796 16.2384 30.3927C16.3544 30.5059 16.4926 30.5958 16.6449 30.6571C16.7972 30.7184 16.9606 30.75 17.1256 30.75C17.2906 30.75 17.454 30.7184 17.6063 30.6571C17.7586 30.5958 17.8968 30.5059 18.0129 30.3927C18.1289 30.2796 18.2206 30.1453 18.2825 29.9977C18.3444 29.8502 18.3753 29.6922 18.3735 29.533L18.3673 21.1616H20.25L19.8715 19.6961C19.8715 19.6961 19.671 18.7168 18.5212 18.7509C18.5212 18.7509 17.921 18.7509 18.184 18.7509H13.1951C12.6193 18.7506 12 19.2583 12 19.9559Z" fill="white"/>
</svg>

