<svg width="100%" height="100%" viewBox="0 0 56 56" fill="none" xmlns="http://www.w3.org/2000/svg">
<path d="M38.2689 22.7833C37.7107 22.6409 37.014 22.9817 36.8586 23.6043L35.1086 30.4873L33.5035 24.1865C33.4898 24.1138 33.431 23.912 33.4229 23.9006C33.2946 23.563 33.0643 23.2719 32.7628 23.0663C32.4613 22.8607 32.103 22.7503 31.7358 22.75C30.9614 22.75 30.2965 23.2237 30.0475 23.8995C30.0454 23.9047 30.0157 23.9926 30.0039 24.0322C30.0023 24.0387 29.9992 24.0454 29.9977 24.0518L28.3664 30.5031C28.3664 30.5031 26.6348 23.7067 26.6329 23.6981L26.6273 23.6755C26.6273 23.6741 26.6251 23.6734 26.6246 23.6721C26.5601 23.4122 26.4094 23.1807 26.1962 23.014C25.9831 22.8473 25.7195 22.7549 25.4469 22.7511C25.4443 22.7511 25.4421 22.75 25.4394 22.75H25.4356C25.4339 22.75 25.4323 22.75 25.4304 22.75C25.4285 22.75 25.4269 22.75 25.4252 22.75H23.5C23.8503 22.9837 24.0452 23.3244 24.1222 23.7182L24.4905 25.1605C24.4905 25.1605 26.5981 33.4258 26.6 33.4321C26.7099 33.8115 26.9428 34.1454 27.2635 34.3832C27.5842 34.621 27.9752 34.7498 28.3771 34.75C29.1897 34.75 29.8609 34.224 30.1084 33.5081C30.0897 33.4983 30.1084 33.51 30.1084 33.5081L31.7345 27.1124C31.7345 27.1124 33.3222 33.4344 33.3433 33.4398C33.5678 34.1934 34.266 34.7497 35.1067 34.7497C35.5358 34.7494 35.9515 34.6027 36.2824 34.3347C36.6134 34.0666 36.839 33.694 36.9206 33.2806L39.2206 24.2003C39.3761 23.5777 38.8942 22.9424 38.2689 22.7833Z" fill="white"/>
<path d="M16 23.9559C16 24.6822 16.6407 25.1612 17.2165 25.1612H19.8715L19.8777 33.533C19.8759 33.6922 19.9069 33.8502 19.9688 33.9977C20.0307 34.1453 20.1223 34.2796 20.2384 34.3927C20.3544 34.5059 20.4926 34.5958 20.6449 34.6571C20.7972 34.7184 20.9606 34.75 21.1256 34.75C21.2906 34.75 21.454 34.7184 21.6063 34.6571C21.7586 34.5958 21.8968 34.5059 22.0129 34.3927C22.1289 34.2796 22.2206 34.1453 22.2825 33.9977C22.3444 33.8502 22.3753 33.6922 22.3735 33.533L22.3673 25.1616H24.25L23.8715 23.6961C23.8715 23.6961 23.671 22.7168 22.5212 22.7509C22.5212 22.7509 21.921 22.7509 22.184 22.7509H17.1951C16.6193 22.7506 16 23.2583 16 23.9559Z" fill="white"/>
</svg>
